<?xml version="1.0" encoding="utf-8"?>
<!-- Generator: Adobe Illustrator 19.0.0, SVG Export Plug-In . SVG Version: 6.00 Build 0)  -->
<svg version="1.1" id="图层_1" xmlns="http://www.w3.org/2000/svg" xmlns:xlink="http://www.w3.org/1999/xlink" x="0px" y="0px"
	 viewBox="0 0 813.5 292" style="enable-background:new 0 0 813.5 292;" xml:space="preserve">
<style type="text/css">
	.st0{fill:#344982;}
	.st1{fill:#22A7DB;}
	.st2{fill:#00437B;}
	.st3{fill:#2186BE;}
	.st4{fill:#2994C9;}
	.st5{fill:#1370AB;}
	.st6{fill:#3EB0D7;}
	.st7{fill:#2289C0;}
	.st8{fill:#218CC3;}
	.st9{fill:#2DA5D2;}
	.st10{fill:#034D8C;}
	.st11{fill:#0E67A3;}
	.st12{fill:#1978B4;}
	.st13{fill:#166FAB;}
	.st14{fill:#0C1632;}
	.st15{fill:#2C9FC7;}
	.st16{fill:#4FB3D8;}
	.st17{fill:#136CAB;}
	.st18{fill:#061708;}
	.st19{fill:#124886;}
	.st20{fill:#2C9BCC;}
	.st21{fill:#1772AE;}
	.st22{fill:#064A7B;}
	.st23{fill:#125286;}
	.st24{fill:#1266A1;}
	.st25{fill:#40536C;}
	.st26{fill:#248DC1;}
	.st27{fill:#38829A;}
	.st28{fill:#166EAD;}
	.st29{fill:#075195;}
	.st30{fill:#3AA6D7;}
	.st31{fill:#2185B8;}
	.st32{fill:#176BA6;}
	.st33{fill:#3089B9;}
	.st34{fill:#004878;}
	.st35{fill:#3184BE;}
	.st36{fill:#015289;}
	.st37{fill:#0F6599;}
	.st38{fill:#2282BB;}
	.st39{fill:#081909;}
	.st40{fill:#054880;}
	.st41{fill:#112749;}
	.st42{fill:#10366B;}
	.st43{fill:#CBB4B4;}
	.st44{fill:#0B1532;}
	.st45{fill:#024A84;}
	.st46{fill:#0D609C;}
	.st47{fill:#197AB1;}
	.st48{fill:#093863;}
	.st49{fill:#2592C6;}
	.st50{fill:#0C599B;}
	.st51{fill:#1369A3;}
	.st52{fill:#091A0B;}
	.st53{fill:#044781;}
	.st54{fill:#1C80B1;}
	.st55{fill:#2CA8CD;}
	.st56{fill:#1E89BA;}
	.st57{fill:#1465A7;}
</style>
<g id="XMLID_2_">
	<g id="XMLID_85_">
		<path id="XMLID_94_" class="st0" d="M445.5,136.6h7.6v-28.4h10.2v28.4h8.5v9.3h-8.5v49.6h-10.2v-49.6h-7.6V136.6z M525.2,170.1
			v-4.7h10.2v4.7h7.2v8.5h-7.2v17h-25.4V187h15.3v-8.5h-50v-8.5H525.2z M476,187.4l9.8-3.8l9.3,8.1l-9.3,3.8L476,187.4z
			 M514.6,120.5v5.1h25v39.9h-10.2v-4.2h-14.8v4.7H504v-4.7h-14.4v4.7H479v-40.3h25v-5.1h-27.6V112H504v-4.2h10.6v4.2h12.7v8.5
			H514.6z M489.6,139.5H504V134h-14.4V139.5z M489.6,153.1H504V148h-14.4V153.1z M514.6,139.5h14.8V134h-14.8V139.5z M514.6,153.1
			h14.8V148h-14.8V153.1z M537.9,107.7l5.9,10.2l-9.3,3l-6.4-10.2L537.9,107.7z"/>
		<path id="XMLID_86_" class="st0" d="M569.3,168.4v6.4l-3.4,20.8l-9.3-4.7l2.5-18.2v-63.2h28.4v86.1h-13.1v-9.3h3v-17.8H569.3z
			 M577.3,134.5v-15.7h-8.1v15.7H577.3z M577.3,159.5v-15.7h-8.1v15.7H577.3z M626.1,106.1l2.1,6.8h21.2v8.9h-54.7v-8.9h22.5
			l-1.7-4.7L626.1,106.1z M639.2,186.2v-55.5h10.2v64.9h-54.7v-64.9h10.6v55.5H639.2z M631.6,182.4l-23.7-49.2l5.1-9.3l23.3,48.8
			L631.6,182.4z M631.2,123.9l5.1,9.3l-23.7,49.2l-4.7-9.8L631.2,123.9z"/>
	</g>
	<g id="XMLID_63_">
		<path id="XMLID_81_" class="st0" d="M506.4,245.3c0,6.1-2.3,10.8-6.8,14c-3.6,2.3-7.9,3.4-12.9,3.4H455v-57.2h33
			c4.5,0,8.4,1.1,11.6,3.4c3.4,2.7,5.1,6.6,5.1,11.6c0,4.8-1.6,8.6-4.8,11.6C504.3,235.2,506.4,239.6,506.4,245.3z M496.5,220.4
			c0-4.5-2.8-6.8-8.5-6.8h-24.9v15.3H485C492.7,228.9,496.5,226.1,496.5,220.4z M498.6,245.3c0-2.7-1-4.9-3.1-6.5
			c-1.6-1.4-3.5-2-5.8-2h-26.6v17.7h23.5C494.6,254.4,498.6,251.4,498.6,245.3z"/>
		<path id="XMLID_79_" class="st0" d="M538.8,242.5h-7.8v-5.8c0-4.5-2-6.8-6.1-6.8h-5.4v32.7h-7.8v-40.5h14
			c8.9,0,13.3,4.9,13.3,14.6V242.5z"/>
		<path id="XMLID_76_" class="st0" d="M582.3,262.6h-25.5c-3,0-5.7-0.8-8.2-2.4c-3.6-2.3-5.4-5.8-5.4-10.6c0-4.5,1.8-8.1,5.4-10.6
			c2.5-1.6,5.2-2.4,8.2-2.4h17.4c-0.7-4.5-4.2-6.8-10.6-6.8h-19.7v-8.2h19.7c6.1,0,10.8,1.6,14,4.8c3.2,3.2,4.8,7.5,4.8,12.9V262.6z
			 M574.5,254.8v-9.9h-17.7c-1.6,0-3,0.3-4.1,1c-1.1,0.9-1.7,2.2-1.7,3.7c0,1.6,0.6,2.8,1.7,3.7c1.1,0.9,2.5,1.4,4.1,1.4H574.5z"/>
		<path id="XMLID_73_" class="st0" d="M600.7,213.6h-8.2v-8.2h8.2V213.6z M600.7,262.6h-8.2v-40.5h8.2V262.6z"/>
		<path id="XMLID_71_" class="st0" d="M647.7,262.6h-8.2v-19.4c0-5.4-1-9.1-3.1-10.9c-1.6-1.6-4.7-2.4-9.2-2.4h-8.9v32.7h-7.8v-40.5
			h16.7c6.6,0,11.5,1.4,14.6,4.1c3.9,3.4,5.8,9.1,5.8,17V262.6z"/>
		<path id="XMLID_69_" class="st1" d="M699.8,262.6H692l-31.7-46v46h-8.2v-57.2h9.2L692,249v-43.6h7.8V262.6z"/>
		<path id="XMLID_66_" class="st1" d="M748.5,242.2c0,6.1-2.2,11.4-6.5,15.7c-4.3,4.3-9.5,6.5-15.7,6.5c-6.1,0-11.4-2.2-15.7-6.5
			c-4.1-4.3-6.1-9.5-6.1-15.7c0-6.1,2-11.3,6.1-15.7c4.3-4.3,9.5-6.5,15.7-6.5c6.1,0,11.3,2.2,15.7,6.5
			C746.3,230.8,748.5,236.1,748.5,242.2z M740.7,242.2c0-3.9-1.5-7.2-4.4-9.9c-2.7-2.7-6-4.1-9.9-4.1c-3.9,0-7.1,1.4-9.9,4.1
			c-2.7,2.7-4.1,6-4.1,9.9c0,3.9,1.4,7.1,4.1,9.9c2.7,2.7,6,4.1,9.9,4.1c3.9,0,7.2-1.4,9.9-4.1C739.2,249.3,740.7,246.1,740.7,242.2
			z"/>
		<path id="XMLID_64_" class="st1" d="M813.5,222.1l-11.2,40.5h-8.5l-10.6-27.2l-10.9,27.2h-8.2l-11.2-40.5h8.2l7.8,27.6l10.9-27.6
			h6.8l10.9,27.6l7.8-27.6H813.5z"/>
	</g>
	<g id="XMLID_3_">
		<polygon id="XMLID_968_" class="st2" points="400.4,168.5 421.3,145.8 415.8,97.9 		"/>
		<polygon id="XMLID_967_" class="st3" points="415.8,97.9 364.6,103.8 400.4,168.5 		"/>
		<polygon id="XMLID_966_" class="st4" points="415.8,97.9 375.7,64 364.6,34 390.2,58.5 		"/>
		<polygon id="XMLID_965_" class="st5" points="415.8,97.9 364.6,103.8 375.7,64 		"/>
		<polygon id="XMLID_964_" class="st5" points="375.7,64 308.6,21.3 364.6,34 		"/>
		<polygon id="XMLID_963_" class="st6" points="375.7,64 331.3,58 308.6,21.3 		"/>
		<polygon id="XMLID_962_" class="st7" points="375.7,64 269.2,79.7 331.3,58 		"/>
		<polygon id="XMLID_961_" class="st8" points="375.7,64 364.6,103.8 318.3,92.9 		"/>
		<polygon id="XMLID_960_" class="st9" points="375.7,64 269.2,79.7 318.3,92.9 		"/>
		<polygon id="XMLID_959_" class="st10" points="400.4,168.5 318.3,157 364.6,103.8 		"/>
		<polyline id="XMLID_958_" class="st11" points="318.3,157 317.3,92.6 364.6,103.8 		"/>
		<polygon id="XMLID_957_" class="st12" points="317.3,92.6 318.3,157 269.2,79.7 		"/>
		<polygon id="XMLID_956_" class="st13" points="331.3,58 269.2,79.7 308.6,21.3 		"/>
		<polygon id="XMLID_955_" class="st14" points="400.4,168.5 345.2,173.7 292.4,169.7 173.1,139.3 318.3,157 		"/>
		<polygon id="XMLID_954_" class="st15" points="308.6,21.3 239.6,1.1 287.2,3.4 		"/>
		<polygon id="XMLID_953_" class="st16" points="308.6,21.3 269.2,79.7 239.6,1.1 		"/>
		<polygon id="XMLID_952_" class="st17" points="269.2,79.7 213.5,67.5 239.6,1.1 		"/>
		<polygon id="XMLID_951_" class="st18" points="239.6,1.1 204.2,64 213.5,67.5 		"/>
		<polygon id="XMLID_950_" class="st19" points="239.6,1.1 213.5,13.9 204.2,64 		"/>
		<polygon id="XMLID_949_" class="st20" points="213.5,13.9 158.3,30.9 204.2,64 		"/>
		<polygon id="XMLID_948_" class="st21" points="213.5,13.9 184.1,4.8 158.3,30.9 		"/>
		<polygon id="XMLID_947_" class="st22" points="169.4,10.1 115.5,38.9 131.7,13.9 		"/>
		<polygon id="XMLID_946_" class="st23" points="151.9,30.9 93.8,90.2 107.8,50.5 		"/>
		<polygon id="XMLID_945_" class="st24" points="158.3,30.9 107,88.4 180.9,73.2 		"/>
		<path id="XMLID_944_" class="st25" d="M85.9,28.5c-0.4,0.2-14,9.1-14,9.1l29.8-8.2L85.9,28.5z"/>
		<polygon id="XMLID_943_" class="st26" points="111.5,33.1 78.2,68.2 79.3,43.4 		"/>
		<polygon id="XMLID_942_" class="st27" points="24.2,58.6 8.1,73.2 10.5,59.6 		"/>
		<polygon id="XMLID_941_" class="st28" points="45.7,72.6 23.4,97.4 80,72.6 		"/>
		<polygon id="XMLID_940_" class="st29" points="4.4,108.6 23.4,139.2 0,127.1 		"/>
		<polygon id="XMLID_939_" class="st30" points="42.7,101 45.4,126.1 78.2,113.5 		"/>
		<polygon id="XMLID_938_" class="st31" points="69.3,101.9 157.2,132.5 145.7,88.4 		"/>
		<polygon id="XMLID_937_" class="st32" points="96.8,115.4 90,178.7 56.5,139.3 		"/>
		<polygon id="XMLID_936_" class="st33" points="37.4,154.4 55.4,178.7 40.7,186.5 		"/>
		<polygon id="XMLID_935_" class="st34" points="57.5,155.6 60.4,194.3 100.3,203.5 		"/>
		<polygon id="XMLID_934_" class="st35" points="103.6,137.5 132,197.3 96.8,175.7 		"/>
		<polygon id="XMLID_933_" class="st36" points="345.2,173.7 318.3,207.7 292.4,169.7 		"/>
		<polygon id="XMLID_932_" class="st37" points="292.4,169.7 266.8,206.8 318.3,207.7 		"/>
		<polygon id="XMLID_931_" class="st38" points="266.8,206.8 173.1,139.3 292.4,169.7 		"/>
		<polygon id="XMLID_930_" class="st39" points="266.8,206.8 254.6,211.8 173.1,139.3 		"/>
		<polygon id="XMLID_929_" class="st40" points="254.6,211.8 232.8,242.8 180.9,246.3 		"/>
		<polygon id="XMLID_928_" class="st41" points="180.9,246.3 154.4,292 232.8,242.8 		"/>
		<polygon id="XMLID_927_" class="st38" points="154.4,292 161,232.8 180.9,246.3 		"/>
		<polygon id="XMLID_926_" class="st38" points="254.6,211.8 190.6,229.1 180.9,246.3 		"/>
		<polygon id="XMLID_925_" class="st42" points="190.6,229.1 141.2,219.4 180.9,246.3 		"/>
		<path id="XMLID_924_" class="st43" d="M254.6,211.8"/>
		<polygon id="XMLID_923_" class="st44" points="254.6,211.8 190.6,229.1 141.2,219.4 		"/>
		<polygon id="XMLID_922_" class="st45" points="184.3,193.2 141.2,219.4 254.6,211.8 		"/>
		<polygon id="XMLID_921_" class="st46" points="184.3,193.2 173.1,139.3 254.6,211.8 		"/>
		<polygon id="XMLID_920_" class="st47" points="184.3,193.2 134.2,193.2 141.2,219.4 		"/>
		<polygon id="XMLID_919_" class="st48" points="141.2,219.4 102.6,184.2 113.3,220.4 		"/>
		<path id="XMLID_918_" class="st49" d="M170.8,151.1c0,0-0.8,38.1-1.5,38.3c-0.7,0.2-34.3-2.8-34.3-2.8L170.8,151.1z"/>
		<polygon id="XMLID_917_" class="st50" points="173.1,139.3 135,186.5 105.1,127.7 		"/>
		<polygon id="XMLID_916_" class="st51" points="318.3,157 173.1,139.3 250.8,116 		"/>
		<polygon id="XMLID_915_" class="st52" points="154.4,106.5 173.1,139.3 250.8,116 318.3,157 250.2,109.1 176.1,126.2 		"/>
		<polygon id="XMLID_914_" class="st53" points="318.3,157 250.2,109.1 269.2,79.7 		"/>
		<polygon id="XMLID_913_" class="st54" points="250.2,109.1 213.9,81.1 269.2,79.7 		"/>
		<polygon id="XMLID_912_" class="st55" points="213.9,81.1 176.1,126.2 250.2,109.1 		"/>
		<polygon id="XMLID_911_" class="st56" points="176.1,126.2 154.4,106.5 213.9,81.1 		"/>
		<polygon id="XMLID_910_" class="st57" points="213.9,81.1 204.2,64 154.4,106.5 		"/>
	</g>
</g>
</svg>
